<svg width="877" height="99" viewBox="0 0 877 99" fill="none" xmlns="http://www.w3.org/2000/svg">
<path d="M11.9 81.512V70.298H0.56V33.884H11.9V22.544H48.44V33.884H59.906V70.298H48.44V81.512H11.9ZM14.42 67.4H45.92V36.656H14.42V67.4ZM75.1264 81.512V0.241998H88.9864V81.512H75.1264ZM113.168 81.512V70.298H101.828V33.884H113.168V22.544H149.708V33.884H161.174V67.4H172.514V81.512H158.654V70.298H149.708V81.512H113.168ZM115.688 67.4H147.188V36.656H115.688V67.4ZM181.439 81.512V11.456H192.779V0.241998H229.319V11.456H240.785V25.568H226.799V14.48H195.299V33.884H217.979V47.87H195.299V81.512H181.439ZM290.704 81.152V72.608H282.064V46.976H273.424V36.224H282.064V19.232H292.528V36.224H318.64V46.976H292.528V70.4H316.72V61.76H327.28V72.608H318.64V81.152H290.704ZM344.595 81.152V72.608H335.955V44.864H344.595V36.224H372.435V44.864H381.171V72.608H372.435V81.152H344.595ZM346.515 70.4H370.515V46.976H346.515V70.4ZM401.408 98.144V89.696H392.768V78.944H403.328V87.392H427.424V72.608H401.408V64.064H392.768V36.224H403.328V61.76H427.424V36.224H437.984V89.696H429.344V98.144H401.408ZM468.799 81.152V19.232H479.359V81.152H468.799ZM497.783 81.152V72.608H489.143V44.864H497.783V36.224H525.623V44.864H534.359V70.4H542.999V81.152H532.439V72.608H525.623V81.152H497.783ZM499.703 70.4H523.703V46.976H499.703V70.4ZM551.674 81.152V36.224H588.154V44.864H596.89V81.152H586.234V46.976H562.234V81.152H551.674ZM615.252 98.144V89.696H606.612V78.944H617.172V87.392H641.268V72.608H615.252V64.064H606.612V44.864H615.252V36.224H643.188V44.864H651.828V89.696H643.188V98.144H615.252ZM617.172 61.76H641.268V46.976H617.172V61.76ZM670.189 81.152V72.608H661.549V36.224H672.109V70.4H696.109V36.224H706.765V72.608H698.029V81.152H670.189ZM725.127 81.152V72.608H716.487V44.864H725.127V36.224H752.967V44.864H761.703V70.4H770.343V81.152H759.783V72.608H752.967V81.152H725.127ZM727.047 70.4H751.047V46.976H727.047V70.4ZM785.783 98.144V89.696H777.143V78.944H787.703V87.392H811.799V72.608H785.783V64.064H777.143V44.864H785.783V36.224H813.719V44.864H822.359V89.696H813.719V98.144H785.783ZM787.703 61.76H811.799V46.976H787.703V61.76ZM839.689 81.152V72.608H831.049V44.864H839.689V36.224H867.529V44.864H876.265V55.52H865.609V46.976H841.609V53.216H858.889V64.064H841.609V70.4H865.609V61.664H876.265V72.512H867.529V81.152H839.689Z" fill="url(#paint0_linear_4_2)" style=""/>
<defs>
<linearGradient id="paint0_linear_4_2" x1="1019.48" y1="-230.33" x2="387.666" y2="152.98" gradientUnits="userSpaceOnUse">
<stop stop-color="#272727" style="stop-color:#272727;stop-color:color(display-p3 0.1542 0.1542 0.1542);stop-opacity:1;"/>
<stop offset="1" stop-color="white" style="stop-color:white;stop-opacity:1;"/>
</linearGradient>
</defs>
</svg>
