<svg width="445" height="88" viewBox="0 0 445 88" fill="none" xmlns="http://www.w3.org/2000/svg">
<path d="M23.7125 69.152C19.5525 69.152 16.0645 68.736 13.2485 67.904C10.4325 67.008 8.0965 65.824 6.2405 64.352C4.4485 62.816 3.1045 61.088 2.2085 59.168C1.3765 57.248 0.8645 55.232 0.6725 53.12H13.3445C13.6645 54.784 14.6565 56.16 16.3205 57.248C17.9845 58.272 20.4485 58.784 23.7125 58.784C27.4245 58.784 30.0805 58.272 31.6805 57.248C33.2805 56.224 34.0805 54.912 34.0805 53.312C34.0805 52.16 33.7285 51.232 33.0245 50.528C32.3205 49.76 31.0725 49.12 29.2805 48.608C27.4885 48.032 24.9605 47.456 21.6965 46.88C18.8805 46.496 16.2885 45.984 13.9205 45.344C11.5525 44.64 9.4725 43.68 7.6805 42.464C5.9525 41.248 4.5765 39.744 3.5525 37.952C2.5925 36.096 2.1125 33.856 2.1125 31.232C2.1125 28.416 2.9445 25.856 4.6085 23.552C6.3365 21.248 8.8005 19.424 12.0005 18.08C15.2645 16.672 19.1685 15.968 23.7125 15.968C28.6405 15.968 32.5765 16.736 35.5205 18.272C38.4645 19.808 40.6725 21.792 42.1445 24.224C43.6165 26.656 44.5125 29.248 44.8325 32H32.1605C31.6485 30.144 30.6565 28.736 29.1845 27.776C27.7125 26.816 25.8885 26.336 23.7125 26.336C20.5125 26.336 18.2085 26.848 16.8005 27.872C15.4565 28.832 14.7845 30.048 14.7845 31.52C14.7845 33.056 15.5205 34.24 16.9925 35.072C18.5285 35.904 21.6325 36.64 26.3045 37.28C29.1845 37.664 31.8405 38.24 34.2725 39.008C36.7685 39.712 38.9445 40.672 40.8005 41.888C42.6565 43.104 44.0965 44.64 45.1205 46.496C46.2085 48.288 46.7525 50.496 46.7525 53.12C46.7525 56.256 45.8885 59.04 44.1605 61.472C42.4965 63.84 39.9365 65.728 36.4805 67.136C33.0885 68.48 28.8325 69.152 23.7125 69.152ZM73.232 69.152C67.344 69.152 62.896 67.488 59.888 64.16C56.88 60.768 55.376 55.552 55.376 48.512V17.12H67.952V46.784C67.952 50.624 68.688 53.536 70.16 55.52C71.696 57.44 74.256 58.4 77.84 58.4C80.4 58.4 82.448 57.856 83.984 56.768C85.584 55.68 86.768 54.272 87.536 52.544C88.304 50.816 88.688 48.896 88.688 46.784V17.12H101.36V68H89.648V60.416C88.432 62.784 86.48 64.832 83.792 66.56C81.168 68.288 77.648 69.152 73.232 69.152ZM112.95 87.2V17.12H124.662V24.608C125.942 22.304 127.958 20.288 130.71 18.56C133.462 16.832 136.95 15.968 141.174 15.968C147.958 15.968 153.238 18.08 157.014 22.304C160.854 26.464 162.774 32.736 162.774 41.12V43.04C162.774 48.864 161.878 53.728 160.086 57.632C158.358 61.472 155.894 64.352 152.694 66.272C149.494 68.192 145.654 69.152 141.174 69.152C137.718 69.152 134.646 68.416 131.958 66.944C129.334 65.408 127.19 63.424 125.526 60.992V87.2H112.95ZM138.198 58.4C141.526 58.4 144.31 57.152 146.55 54.656C148.79 52.096 149.91 48.224 149.91 43.04V41.12C149.91 36.32 148.822 32.736 146.646 30.368C144.534 27.936 141.718 26.72 138.198 26.72C135.83 26.72 133.654 27.2 131.67 28.16C129.75 29.056 128.246 30.432 127.158 32.288C126.07 34.08 125.526 36.384 125.526 39.2V44.96C125.526 47.968 126.038 50.496 127.062 52.544C128.15 54.528 129.654 56 131.574 56.96C133.494 57.92 135.702 58.4 138.198 58.4ZM169.633 26.72L173.473 12.32V0.799995H185.953V12.32L176.161 26.72H169.633ZM252.268 69.152C248.044 69.152 244.556 68.288 241.804 66.56C239.052 64.832 237.036 62.816 235.756 60.512V68H224.044V0.799995H236.62V24.128C238.22 21.696 240.332 19.744 242.956 18.272C245.644 16.736 248.748 15.968 252.268 15.968C259.052 15.968 264.332 18.08 268.108 22.304C271.948 26.464 273.868 32.736 273.868 41.12V43.04C273.868 48.864 272.972 53.728 271.18 57.632C269.452 61.472 266.988 64.352 263.788 66.272C260.588 68.192 256.748 69.152 252.268 69.152ZM249.292 58.4C252.62 58.4 255.404 57.152 257.644 54.656C259.884 52.096 261.004 48.224 261.004 43.04V41.12C261.004 36.32 259.916 32.736 257.74 30.368C255.628 27.936 252.812 26.72 249.292 26.72C246.924 26.72 244.748 27.2 242.764 28.16C240.844 29.056 239.34 30.432 238.252 32.288C237.164 34.08 236.62 36.384 236.62 39.2V44.96C236.62 47.968 237.132 50.496 238.156 52.544C239.244 54.528 240.748 56 242.668 56.96C244.652 57.92 246.86 58.4 249.292 58.4ZM300.482 69.152C294.594 69.152 290.146 67.488 287.138 64.16C284.13 60.768 282.626 55.552 282.626 48.512V17.12H295.202V46.784C295.202 50.624 295.938 53.536 297.41 55.52C298.946 57.44 301.506 58.4 305.09 58.4C307.65 58.4 309.698 57.856 311.234 56.768C312.834 55.68 314.018 54.272 314.786 52.544C315.554 50.816 315.938 48.896 315.938 46.784V17.12H328.61V68H316.898V60.416C315.682 62.784 313.73 64.832 311.042 66.56C308.418 68.288 304.898 69.152 300.482 69.152ZM359.304 69.152C354.888 69.152 351.048 68.192 347.784 66.272C344.584 64.352 342.088 61.472 340.296 57.632C338.568 53.728 337.704 48.864 337.704 43.04V41.12C337.704 35.616 338.568 31.008 340.296 27.296C342.088 23.584 344.616 20.768 347.88 18.848C351.144 16.928 354.952 15.968 359.304 15.968C362.824 15.968 365.896 16.736 368.52 18.272C371.208 19.744 373.352 21.728 374.952 24.224V0.799995H387.528V68H375.816V60.512C374.536 62.816 372.52 64.832 369.768 66.56C367.016 68.288 363.528 69.152 359.304 69.152ZM362.28 58.4C364.84 58.4 367.048 57.92 368.904 56.96C370.824 56 372.296 54.528 373.32 52.544C374.408 50.496 374.952 47.968 374.952 44.96V39.2C374.952 36.384 374.408 34.08 373.32 32.288C372.232 30.432 370.696 29.056 368.712 28.16C366.792 27.2 364.648 26.72 362.28 26.72C358.824 26.72 356.008 27.936 353.832 30.368C351.656 32.736 350.568 36.32 350.568 41.12V43.04C350.568 48.288 351.688 52.16 353.928 54.656C356.168 57.152 358.952 58.4 362.28 58.4ZM416.254 52.352V32.096H433.438V18.944H410.59V35.648H399.262V15.392H407.806V6.944H436.222V15.392H444.862V35.648H436.222V43.904H427.774V52.352H416.254ZM416.254 69.056V57.152H427.774V69.056H416.254Z" fill="url(#paint0_linear_25_2)" style=""/>
<defs>
<linearGradient id="paint0_linear_25_2" x1="204.247" y1="-83.4261" x2="204.247" y2="83.2522" gradientUnits="userSpaceOnUse">
<stop offset="1" stop-color="white" style="stop-color:white;stop-opacity:1;"/>
</linearGradient>
</defs>
</svg>
